<svg xmlns="http://www.w3.org/2000/svg" width="16.357" height="16.357" viewBox="0 0 16.357 16.357">
    <defs>
        <style>
            .cls-1{fill:#999}
        </style>
    </defs>
    <g id="그룹_140" transform="translate(-864 -1000)">
        <g id="그룹_132" transform="translate(866.71 1004.072)">
            <g id="그룹_131">
                <g id="그룹_130">
                    <g id="그룹_128" transform="translate(.682)">
                        <g id="그룹_126" transform="translate(0 .018)">
                            <g id="그룹_124">
                                <path id="패스_228" d="M869.658 1013.514a.682.682 0 0 1-.483-1.163l6.151-6.15a.682.682 0 0 1 .964.964l-6.15 6.149a.679.679 0 0 1-.482.2z" class="cls-1" transform="translate(-868.977 -1006.001)"/>
                            </g>
                            <g id="그룹_125" transform="translate(2.045 2.045)">
                                <path id="패스_229" d="M872.658 1016.514a.681.681 0 0 1-.483-1.163l6.151-6.15a.681.681 0 0 1 .964.964l-6.15 6.15a.68.68 0 0 1-.482.199z" class="cls-1" transform="translate(-871.977 -1009.001)"/>
                            </g>
                        </g>
                        <g id="그룹_127" transform="translate(6.15)">
                            <path id="패스_230" d="M880.728 1009.4a.681.681 0 0 1-.676-.778 1.437 1.437 0 0 0-.247-1.028 1.414 1.414 0 0 0-1.025-.245.682.682 0 0 1-.2-1.35 2.7 2.7 0 0 1 2.215.664 2.779 2.779 0 0 1 .6 2.152.681.681 0 0 1-.667.585z" class="cls-1" transform="translate(-878.001 -1005.974)"/>
                        </g>
                    </g>
                    <g id="그룹_129" transform="translate(0 6.168)">
                        <path id="패스_231" d="M868.658 1019.114a.681.681 0 0 1-.662-.846l.682-2.727a.682.682 0 1 1 1.323.33l-.406 1.625 1.624-.407a.681.681 0 1 1 .331 1.322l-2.726.682a.648.648 0 0 1-.166.021z" class="cls-1" transform="translate(-867.976 -1015.024)"/>
                    </g>
                </g>
            </g>
        </g>
        <g id="그룹_134" transform="translate(864 1000)">
            <g id="그룹_133">
                <path id="패스_232" d="M872.179 1016.357a8.159 8.159 0 0 1-5.5-2.123.682.682 0 0 1 .917-1.009 6.792 6.792 0 1 0-1.974-3.175.682.682 0 0 1-1.311.373 8.18 8.18 0 1 1 7.867 5.935z" class="cls-1" transform="translate(-864 -1000)"/>
            </g>
        </g>
        <g id="그룹_136" transform="translate(872.224 1005.452)">
            <g id="그룹_135">
                <path id="패스_233" d="M878.747 1011.363a.679.679 0 0 1-.482-.2l-2-2a.681.681 0 1 1 .964-.964l2 2a.682.682 0 0 1-.482 1.163z" class="cls-1" transform="translate(-876.066 -1008)"/>
            </g>
        </g>
    </g>
</svg>
