<?xml version="1.0" encoding="utf-8"?>
<!-- Generator: Adobe Illustrator 25.2.3, SVG Export Plug-In . SVG Version: 6.00 Build 0)  -->
<svg version="1.1" id="레이어_1" xmlns="http://www.w3.org/2000/svg" xmlns:xlink="http://www.w3.org/1999/xlink" x="0px"
	 y="0px" viewBox="0 0 32.5 40.5" style="enable-background:new 0 0 32.5 40.5;" xml:space="preserve">
<style type="text/css">
	.st0{fill:none;stroke:#FFFFFF;stroke-width:1.5;stroke-linecap:round;stroke-linejoin:round;}
</style>
<g id="그룹_32" transform="translate(-1038.315 -7022.729)">
	<path id="사각형_51" class="st0" d="M1040.1,7023.5h29c0.6,0,1,0.4,1,1v37c0,0.6-0.4,1-1,1h-29c-0.6,0-1-0.4-1-1v-37
		C1039.1,7023.9,1039.5,7023.5,1040.1,7023.5z"/>
	<g id="그룹_31" transform="translate(1046.731 7030.387)">
		<path id="선_17" class="st0" d="M4.3,4.1v4"/>
		<path id="선_18" class="st0" d="M11.3,8.1v-4"/>
		<path id="패스_196" class="st0" d="M11.5,4.6C11.3,3.1,9.4,2,7.7,2C6,2,4.1,3.1,3.8,4.6"/>
		<path id="패스_197" class="st0" d="M11.5,8.4c0.1,1.4-0.4,2.8-1.3,3.8"/>
		<path id="패스_198" class="st0" d="M3.9,8.4c-0.1,1.4,0.4,2.8,1.3,3.8"/>
		<g id="그룹_30" transform="translate(0 12.245)">
			<path id="패스_199" class="st0" d="M15.4,2.6L10.3,0"/>
			<path id="선_19" class="st0" d="M5.1,0L0,2.6"/>
		</g>
		<path id="패스_200" class="st0" d="M0,14.8v2.6h15.4v-2.6"/>
		<path id="선_21" class="st0" d="M0.3,25.1h15"/>
	</g>
</g>
</svg>
