<?xml version="1.0" encoding="utf-8"?>
<!-- Generator: Adobe Illustrator 25.1.0, SVG Export Plug-In . SVG Version: 6.00 Build 0)  -->
<svg version="1.1" id="레이어_1" xmlns="http://www.w3.org/2000/svg" xmlns:xlink="http://www.w3.org/1999/xlink" x="0px"
	 y="0px" viewBox="0 0 21.5 18.1" style="enable-background:new 0 0 21.5 18.1;" xml:space="preserve">
<style type="text/css">
	.st0{fill:#999999;}
</style>
<g id="그룹_35" transform="translate(-269.73 -951.173)">
	<g id="그룹_19" transform="translate(279.882 963.829)">
		<path id="패스_185" class="st0" d="M-5.6-5.5c-0.5,0-0.8,0.4-0.8,0.8c0,0.5,0.4,0.8,0.8,0.8c0.5,0,0.8-0.4,0.8-0.8
			C-4.7-5.1-5.1-5.5-5.6-5.5C-5.6-5.5-5.6-5.5-5.6-5.5z"/>
		<path id="패스_186" class="st0" d="M1.9-5.5c-0.5,0-0.8,0.4-0.8,0.8s0.4,0.8,0.8,0.8c0.5,0,0.8-0.4,0.8-0.8
			C2.8-5.1,2.4-5.5,1.9-5.5C1.9-5.5,1.9-5.5,1.9-5.5z"/>
		<path id="패스_187" class="st0" d="M6.9-5.5c-0.5,0-0.8,0.4-0.8,0.8s0.4,0.8,0.8,0.8c0.5,0,0.8-0.4,0.8-0.8
			C7.8-5.1,7.4-5.5,6.9-5.5z"/>
		<path id="패스_188" class="st0" d="M7.9-12.6H-6.7c-1.9,0-3.4,1.5-3.4,3.4c0,0,0,0,0,0v8c0,1.9,1.5,3.4,3.4,3.4c0,0,0,0,0,0h5
			L0.1,5c0,0,0,0.1,0.1,0.1c0.2,0.3,0.5,0.4,0.8,0.2C1,5.2,1.1,5.2,1.1,5.1c0,0,0-0.1,0.1-0.1l1.7-2.8h5c1.9,0,3.4-1.5,3.4-3.4v-8
			C11.3-11.1,9.8-12.6,7.9-12.6L7.9-12.6z M-5.3-2.7c-0.4,0-0.9-0.2-1.1-0.6v0.4h-1.3v-5.4h1.3v2.1c0.3-0.3,0.7-0.5,1.1-0.5
			c1.8,0,1.8,2,1.8,2C-3.4-3.7-4.2-2.7-5.3-2.7C-5.3-2.7-5.3-2.7-5.3-2.7L-5.3-2.7z M-1.2-6.3v3.5h-1.3V-6C-2.4-7.2-3-7.1-3-7.1
			v-1.3C-1.1-8.4-1.2-6.3-1.2-6.3L-1.2-6.3z M4.1-4.7c0,2-2.2,2-2.2,2c-1.1,0.1-2-0.7-2.1-1.7c0-0.1,0-0.2,0-0.3c0-2,2.2-2,2.2-2
			C3-6.8,4-6,4.1-4.9C4.1-4.9,4.1-4.8,4.1-4.7L4.1-4.7z M9-2.9c0.1,1-0.7,2-1.8,2c-0.1,0-0.1,0-0.2,0H6.6V-2h0.3c0.9,0,0.8-1,0.8-1
			v-0.3C7.4-2.9,7-2.7,6.6-2.7c-1.8,0-1.8-1.9-1.8-1.9c-0.1-1,0.6-1.9,1.6-2c0.1,0,0.2,0,0.3,0c0.4,0,0.8,0.2,1.1,0.5v-0.4H9L9-2.9z
			"/>
	</g>
</g>
</svg>
