<?xml version="1.0" encoding="utf-8"?>
<!-- Generator: Adobe Illustrator 25.1.0, SVG Export Plug-In . SVG Version: 6.00 Build 0)  -->
<svg version="1.1" id="레이어_1" xmlns="http://www.w3.org/2000/svg" xmlns:xlink="http://www.w3.org/1999/xlink" x="0px"
	 y="0px" viewBox="0 0 18.1 18.1" style="enable-background:new 0 0 18.1 18.1;" xml:space="preserve">
<style type="text/css">
	.st0{fill:#999999;}
</style>
<g id="그룹_36" transform="translate(-319.188 -951.256)">
	<g id="그룹_20" transform="translate(330.995 962.829)">
		<path id="패스_189" class="st0" d="M1-11.5h-7.6c-2.9,0-5.2,2.3-5.2,5.2c0,0,0,0,0,0v7.6c0,2.9,2.3,5.2,5.2,5.2c0,0,0,0,0,0H1
			c2.9,0,5.2-2.3,5.2-5.2c0,0,0,0,0,0v-7.6C6.2-9.2,3.9-11.5,1-11.5C1-11.5,1-11.5,1-11.5 M4.6,1.4c0,1.9-1.5,3.4-3.4,3.4h-7.8
			c-1.9,0-3.4-1.5-3.4-3.4v-7.8c0-1.9,1.5-3.4,3.4-3.4h7.8c1.9,0,3.4,1.5,3.4,3.4l0,0V1.4z"/>
		<path id="패스_190" class="st0" d="M-2.8-7.1c-2.6,0-4.7,2.1-4.7,4.7s2.1,4.7,4.7,4.7c2.6,0,4.7-2.1,4.7-4.7
			C1.9-5-0.2-7.1-2.8-7.1C-2.7-7.1-2.8-7.1-2.8-7.1 M-2.8,0.6c-1.7,0-3-1.4-3-3c0-1.7,1.4-3,3-3c1.7,0,3,1.4,3,3c0,0,0,0,0,0
			C0.3-0.8-1.1,0.6-2.8,0.6"/>
		<path id="패스_191" class="st0" d="M2.1-8.4C1.5-8.4,1-7.9,1-7.3c0,0.6,0.5,1.1,1.1,1.1s1.1-0.5,1.1-1.1c0,0,0,0,0,0
			C3.1-7.9,2.7-8.4,2.1-8.4"/>
	</g>
</g>
</svg>
