<svg xmlns="http://www.w3.org/2000/svg" width="15.63" height="15.614" viewBox="0 0 15.63 15.614">
    <defs>
        <style>
            .cls-1{fill:#999}
        </style>
    </defs>
    <g id="그룹_115" transform="translate(-1957.975 -556)">
        <g id="그룹_109" transform="translate(1957.991 556)">
            <path id="패스_217" d="M1965.807 571.613h-7.156a.65.65 0 0 1-.651-.651v-7.156a.649.649 0 0 1 .191-.46l7.156-7.156a.648.648 0 0 1 .46-.191h3.9a.648.648 0 0 1 .46.191l3.253 3.253a.648.648 0 0 1 .19.46v3.9a.65.65 0 0 1-.19.46l-7.156 7.156a.65.65 0 0 1-.457.194zm-6.506-1.3h6.236l6.775-6.775v-3.365l-2.872-2.872h-3.365l-6.775 6.775z" class="cls-1" transform="translate(-1958 -556)"/>
        </g>
        <g id="그룹_110" transform="translate(1957.992 562.719)">
            <path id="패스_218" d="M1963.2 570.669a.65.65 0 0 1-.647-.654 2.877 2.877 0 0 0-.859-1.885c-1.079-1.012-2.667-.178-2.734-.142a.651.651 0 0 1-.623-1.142c.1-.055 2.476-1.326 4.246.335a4.156 4.156 0 0 1 1.271 2.842.65.65 0 0 1-.654.646z" class="cls-1" transform="translate(-1958.001 -566.329)"/>
        </g>
        <g id="그룹_111" transform="translate(1962.545 565.758)">
            <path id="패스_219" d="M1968.282 576.845a.65.65 0 0 1-.571-.961c.04-.076.867-1.658-.141-2.733a2.872 2.872 0 0 0-1.91-.85h-.009a.651.651 0 0 1-.009-1.3 4.15 4.15 0 0 1 2.877 1.261c1.66 1.77.39 4.145.334 4.246a.651.651 0 0 1-.571.337z" class="cls-1" transform="translate(-1965 -571)"/>
        </g>
        <g id="그룹_112" transform="translate(1961.895 556)">
            <path id="패스_220" d="M1964.65 564.457a.651.651 0 0 1-.46-1.11l7.156-7.156a.65.65 0 1 1 .92.92l-7.156 7.156a.649.649 0 0 1-.46.19z" class="cls-1" transform="translate(-1964 -556)"/>
        </g>
        <g id="그룹_113" transform="translate(1965.147 559.253)">
            <path id="패스_221" d="M1969.651 569.457a.651.651 0 0 1-.46-1.11l7.156-7.156a.65.65 0 1 1 .92.92l-7.156 7.156a.649.649 0 0 1-.46.19z" class="cls-1" transform="translate(-1969 -561)"/>
        </g>
        <g id="그룹_114" transform="translate(1957.975 568.359)">
            <path id="패스_222" d="M1960.594 578.252a.7.7 0 0 1-.072 0 .65.65 0 0 1-.575-.718 1.381 1.381 0 0 0-.464-.77 1.284 1.284 0 0 0-.8-.461.64.64 0 0 1-.7-.576.665.665 0 0 1 .591-.72 2.884 2.884 0 0 1 2.67 2.67.65.65 0 0 1-.65.575z" class="cls-1" transform="translate(-1957.975 -574.997)"/>
        </g>
    </g>
</svg>
