<svg xmlns="http://www.w3.org/2000/svg" width="181.12" height="40">
  <defs>
    <style>
      .cls-1{fill:#d4000f}.cls-2{fill:#474645}
    </style>
  </defs>
  <g id="그룹_39" transform="translate(-50 -152)">
    <path id="패스_201" d="M140.645 282.486L132.56 278a.487.487 0 00-.766.473v28.306a.486.486 0 00.766.472l8.085-4.485a1.518 1.518 0 00.764-1.238v-17.8a1.518 1.518 0 00-.764-1.242z" class="cls-1" transform="translate(-81.794 -125.918)"/>
    <path id="패스_202" d="M453.583 282.486l8.085-4.486a.486.486 0 01.765.473v28.306a.486.486 0 01-.765.472l-8.085-4.485a1.516 1.516 0 01-.765-1.238v-17.8a1.516 1.516 0 01.765-1.242z" class="cls-1" transform="translate(-231.313 -125.918)"/>
    <g id="그룹_38" transform="translate(71.073 157.677)">
      <path id="패스_203" d="M175.923 300.247h-1.316v6.445h-3.369v-17.724h5.067c4.549 0 6.451 2.109 6.451 5.462 0 3.476-1.933 5.817-6.833 5.817zm.329-8.865h-1.645v6.352h1.5c2.625 0 3.512-1.414 3.512-3.334.003-1.808-.949-3.017-3.367-3.017z" class="cls-2" transform="translate(-171.238 -288.742)"/>
      <path id="패스_204" d="M203.6 306.75c-4.761 0-6.663-4.061-6.663-9.1 0-5.012 1.9-9.1 6.663-9.1s6.63 4.089 6.63 9.1c.002 5.039-1.873 9.1-6.63 9.1zm0-15.6c-2.821 0-3.46 2.957-3.46 6.389 0 3.4.56 6.572 3.46 6.572s3.427-3.17 3.427-6.572c.003-3.429-.61-6.386-3.427-6.386z" class="cls-2" transform="translate(-183.209 -288.545)"/>
      <path id="패스_205" d="M237.6 306.719l-6.71-11.419a22.009 22.009 0 01-1.029-1.978h-.049s.1 1 .1 2.055v11.342H227v-17.694h3.246l6.324 10.751a20.206 20.206 0 01.951 1.8h.056s-.08-.849-.08-1.878v-10.673h2.885v17.694z" class="cls-2" transform="translate(-197.209 -288.769)"/>
      <path id="패스_206" d="M388.578 306.719l-6.71-11.419a21.838 21.838 0 01-1.03-1.978h-.049s.1 1 .1 2.055v11.342h-2.912v-17.694h3.247l6.325 10.751a20.034 20.034 0 01.951 1.8h.056s-.08-.849-.08-1.878v-10.673h2.884v17.694z" class="cls-2" transform="translate(-267.528 -288.769)"/>
      <path id="패스_207" d="M263.925 299.081v7.638h-3.265v-7.638l-4.76-10.056h3.471l3.033 7.331h.052l3.162-7.331h3.111z" class="cls-2" transform="translate(-210.67 -288.769)"/>
      <path id="패스_208" d="M302.492 306.75c-4.5 0-6.786-4.191-6.786-9.1 0-4.808 2.314-9.1 6.814-9.1a5.993 5.993 0 013.65 1l-.723 2.236a4.281 4.281 0 00-2.287-.617c-3.035 0-4.062 3.058-4.062 6.454 0 3.42 1.157 6.355 4.062 6.355a3.783 3.783 0 002.238-.618l.771 2.392a5.969 5.969 0 01-3.677.998z" class="cls-2" transform="translate(-229.21 -288.545)"/>
      <path id="패스_209" d="M328.95 306.718V298.8h-5.579v7.916h-3.264v-17.691h3.264v7.414h5.579v-7.414h3.266v17.693z" class="cls-2" transform="translate(-240.574 -288.769)"/>
      <path id="패스_210" d="M355.444 307c-3.468 0-5.837-2.213-5.837-5.423v-12.552h3.266v12.166a2.67 2.67 0 002.7 2.928 2.639 2.639 0 002.674-2.928v-12.166h3.031v12.552c.001 3.209-2.363 5.423-5.834 5.423z" class="cls-2" transform="translate(-254.314 -288.769)"/>
      <path id="패스_211" d="M416.233 306.75c-4.731 0-7.712-3.264-7.712-9.2 0-5.629 3.213-9 7.791-9a8.591 8.591 0 014.42.979l-.976 2.164a6.076 6.076 0 00-3.059-.669c-3.06 0-4.859 1.949-4.859 6.683 0 4.472 1.8 6.548 4.266 6.548a3.745 3.745 0 001.777-.334v-5.491h-2.548v-2.329h5.635v9.655a8.763 8.763 0 01-4.735.994z" class="cls-2" transform="translate(-281.754 -288.545)"/>
    </g>
    <path id="패스_212" d="M226.644 346.06h1.212v-3.117h2.836v-1.127h-2.836v-1.9h3.007V338.8h-4.219zm21.2-2.676a1.608 1.608 0 11-3.211-.005V338.8h-1.209v4.355a3.124 3.124 0 00.766 2.308 3.19 3.19 0 004.1 0 3.135 3.135 0 00.766-2.313v-4.35h-1.211zm9.415.8c-.433-.771-2.974-5.311-2.974-5.311l-1.385-.073h-.147v7.265h1.11v-5.545c.431.768 3.095 5.471 3.095 5.471l1.265.075h.143V338.8h-1.106zm-20.341-5.531c-1.96 0-3.174 1.45-3.174 3.776s1.215 3.779 3.174 3.779 3.17-1.445 3.17-3.779-1.209-3.779-3.166-3.779zm0 6.431c-1.31 0-1.921-.844-1.921-2.656s.611-2.654 1.921-2.654 1.915.844 1.915 2.654-.604 2.653-1.911 2.653zm49.792.979h1.211V338.8h-1.211zm7.636-7.41c-1.961 0-3.177 1.45-3.177 3.776s1.216 3.779 3.177 3.779 3.17-1.445 3.17-3.779-1.211-3.779-3.166-3.779zm0 6.431c-1.309 0-1.92-.844-1.92-2.656s.611-2.654 1.92-2.654 1.916.844 1.916 2.654-.606 2.653-1.912 2.653zm11.019-6.286v5.386c-.434-.771-2.975-5.311-2.975-5.311l-1.386-.074h-.147v7.265h1.11v-5.545c.433.768 3.1 5.471 3.1 5.471l1.264.075h.144V338.8zm-27.136 1.121h2.222v6.144h1.212v-6.144h2.22V338.8h-5.654zm-12.025-.673a3.474 3.474 0 00-1.877-.449h-2.353v7.265h2.349a3.523 3.523 0 001.882-.448 4.194 4.194 0 000-6.368zm-.27 4.971a1.707 1.707 0 01-1.556.722h-1.194v-5.02h1.194a1.714 1.714 0 011.555.725 3.551 3.551 0 010 3.573zM273 338.8c-.134.092-2.926 7.065-2.926 7.065l-.077.2h1.26l.752-1.908 2.929.09-.009.018a16.945 16.945 0 00.6 1.71l1.134.091h.215l-2.756-7.173zm-.606 4.321c.117-.306.846-2.244 1.056-2.795.194.556.886 2.493.993 2.795z" class="cls-2" transform="translate(-125.971 -154.205)"/>
  </g>
</svg>
